# xmcd
#
# Track frame offsets:
#	150
#	15276
#	28935
#	50759
#	72360
#	88912
#	102026
#	120823
#	131657
#	148869
#	165889
#	180404
#	201395
#
# Disc length: 2921 seconds
#
# Revision: 1
# Processed by: cddbd v1.5.2PL0 Copyright (c) Steve Scherf et al.
# Submitted via: audiograbber 1.83.01
#
DISCID=ac0b670d
DTITLE=Notorius - Notorius
DYEAR=2003
DGENRE=Country
TTITLE0=Beer For My Horses
TTITLE1=Too Rock For Country
TTITLE2=Workin ' Man Blues
TTITLE3=Lost In  The 50´s
TTITLE4=Real Good Man
TTITLE5=Old  Weakness
TTITLE6=Smoke Rings In The Dark
TTITLE7=49 Women
TTITLE8=Forever Man
TTITLE9=Looking For A Place
TTITLE10=Satisfy You
TTITLE11=Like Father, Like Son
TTITLE12=Have You Forgotten
EXTD=
EXTT0=
EXTT1=
EXTT2=
EXTT3=
EXTT4=
EXTT5=
EXTT6=
EXTT7=
EXTT8=
EXTT9=
EXTT10=
EXTT11=
EXTT12=
PLAYORDER=
